# xmcd
#
# Track frame offsets:
#	150
#	8813
#	16896
#	26677
#	33749
#	42957
#	58053
#	72393
#	81585
#	92146
#	105907
#	114675
#	124749
#	136547
#	148402
#	156595
#	165580
#	173199
#
# Disc length: 2426 seconds
#
# Revision: 1
# Processed by: cddbd v1.5.1PL0 Copyright (c) Steve Scherf et al.
# Submitted via: EasyCDDAExtractor 7.0.5.1
#
DISCID=fa097812
DTITLE=Jim Reeves - Golden Songs Disc [CD1]
DYEAR=1900
DGENRE=Country
TTITLE0=If You Were Only Mine
TTITLE1=Everywhere You Go
TTITLE2=Home
TTITLE3=I'm Beginning To Forget You
TTITLE4=The Wind Up
TTITLE5=Making Believe
TTITLE6=The Highway To Nowhere
TTITLE7=Beyond The Shadow Of A Doubt
TTITLE8=An Evening Prayer
TTITLE9=How's The World Treating You?
TTITLE10=According To My Heart
TTITLE11=Dear Hearts And Gentle People
TTITLE12=I've Lived A Lot In My Time
TTITLE13=Mexican Joe
TTITLE14=Sweet Evening Breeze
TTITLE15=I'd Like To Be
TTITLE16=In A Mansion Stands My Love
TTITLE17=Old Time Religion
EXTD=
EXTT0=
EXTT1=
EXTT2=
EXTT3=
EXTT4=
EXTT5=
EXTT6=
EXTT7=
EXTT8=
EXTT9=
EXTT10=
EXTT11=
EXTT12=
EXTT13=
EXTT14=
EXTT15=
EXTT16=
EXTT17=
PLAYORDER=
